<?xml version="1.0" encoding="UTF-8"?>
<!-- Generated by Pixelmator Pro 3.8 -->
<svg width="1024" height="1024" viewBox="0 0 1024 1024" xmlns="http://www.w3.org/2000/svg">
    <clipPath id="clipPath1">
        <path clip-rule="evenodd" d="M 0 768 C 0 909.384895 114.615105 1024 256 1024 L 768 1024 C 909.384888 1024 1024 909.384895 1024 768 L 1024 256 C 1024 114.615112 909.384888 0 768 0 L 256 0 C 114.615105 0 0 114.615112 0 256 Z"/>
    </clipPath>
    <path id="Path" fill="#ffffff" stroke="none" clip-path="url(#clipPath1)" d="M 0 0 L 1024 0 L 1024 1024 L 0 1024 Z"/>
    <path id="path1" fill="none" stroke="#000000" stroke-width="83.199997" stroke-linecap="square" d="M 192 224 L 832 224 M 512 224 L 512 800"/>
    <path id="path2" fill="none" stroke="#000000" stroke-width="83.199997" stroke-linecap="square" d="M 224 800 L 224 416 L 512 672 L 800 416 L 800 800"/>
</svg>
